<mxfile host="Electron" modified="2024-01-21T18:52:37.910Z" agent="Mozilla/5.0 (Windows NT 10.0; Win64; x64) AppleWebKit/537.36 (KHTML, like Gecko) draw.io/22.1.21 Chrome/120.0.6099.109 Electron/28.1.0 Safari/537.36" etag="FiUY99ohjB8_hYZLhw-q" version="22.1.21" type="device">
  <diagram id="6a731a19-8d31-9384-78a2-239565b7b9f0" name="Page-1">
    <mxGraphModel dx="1434" dy="844" grid="0" gridSize="10" guides="1" tooltips="1" connect="1" arrows="1" fold="1" page="1" pageScale="1" pageWidth="827" pageHeight="1169" background="none" math="0" shadow="0">
      <root>
        <mxCell id="0" />
        <mxCell id="1" parent="0" />
        <mxCell id="XwpVITPWyW7fgP2IyW2y-2257" value="&lt;div style=&quot;&quot;&gt;&lt;b style=&quot;background-color: initial; font-size: 14px;&quot;&gt;S1&lt;/b&gt;&lt;br&gt;&lt;/div&gt;" style="shape=mxgraph.cisco.switches.workgroup_switch;sketch=0;html=1;pointerEvents=1;dashed=0;fillColor=#036897;strokeColor=#ffffff;strokeWidth=2;verticalLabelPosition=bottom;verticalAlign=top;align=left;outlineConnect=0;" vertex="1" parent="1">
          <mxGeometry x="169" y="330" width="101" height="50" as="geometry" />
        </mxCell>
        <mxCell id="XwpVITPWyW7fgP2IyW2y-2258" value="&lt;b&gt;&lt;font style=&quot;font-size: 14px;&quot;&gt;S2&lt;/font&gt;&lt;/b&gt;" style="shape=mxgraph.cisco.switches.workgroup_switch;sketch=0;html=1;pointerEvents=1;dashed=0;fillColor=#036897;strokeColor=#ffffff;strokeWidth=2;verticalLabelPosition=bottom;verticalAlign=top;align=left;outlineConnect=0;" vertex="1" parent="1">
          <mxGeometry x="450" y="330" width="101" height="50" as="geometry" />
        </mxCell>
        <mxCell id="XwpVITPWyW7fgP2IyW2y-2259" value="&lt;b&gt;&lt;font style=&quot;font-size: 14px;&quot;&gt;PC-A&lt;/font&gt;&lt;/b&gt;" style="shape=mxgraph.cisco.computers_and_peripherals.workstation;sketch=0;html=1;pointerEvents=1;dashed=0;fillColor=#036897;strokeColor=#ffffff;strokeWidth=2;verticalLabelPosition=bottom;verticalAlign=top;align=center;outlineConnect=0;" vertex="1" parent="1">
          <mxGeometry x="178" y="500" width="83" height="62" as="geometry" />
        </mxCell>
        <mxCell id="XwpVITPWyW7fgP2IyW2y-2260" value="&lt;font style=&quot;font-size: 14px;&quot;&gt;&lt;b&gt;PC-B&lt;/b&gt;&lt;/font&gt;" style="shape=mxgraph.cisco.computers_and_peripherals.workstation;sketch=0;html=1;pointerEvents=1;dashed=0;fillColor=#036897;strokeColor=#ffffff;strokeWidth=2;verticalLabelPosition=bottom;verticalAlign=top;align=center;outlineConnect=0;" vertex="1" parent="1">
          <mxGeometry x="459" y="500" width="83" height="62" as="geometry" />
        </mxCell>
        <mxCell id="XwpVITPWyW7fgP2IyW2y-2265" value="" style="endArrow=none;html=1;rounded=0;fontSize=12;strokeWidth=3;" edge="1" parent="1" source="XwpVITPWyW7fgP2IyW2y-2259" target="XwpVITPWyW7fgP2IyW2y-2257">
          <mxGeometry width="50" height="50" relative="1" as="geometry">
            <mxPoint x="500" y="670" as="sourcePoint" />
            <mxPoint x="550" y="620" as="targetPoint" />
            <Array as="points" />
          </mxGeometry>
        </mxCell>
        <mxCell id="XwpVITPWyW7fgP2IyW2y-2266" value="" style="endArrow=none;html=1;rounded=0;exitX=0.98;exitY=0.5;exitDx=0;exitDy=0;exitPerimeter=0;entryX=0;entryY=0.5;entryDx=0;entryDy=0;entryPerimeter=0;strokeWidth=3;" edge="1" parent="1" source="XwpVITPWyW7fgP2IyW2y-2257" target="XwpVITPWyW7fgP2IyW2y-2258">
          <mxGeometry width="50" height="50" relative="1" as="geometry">
            <mxPoint x="500" y="670" as="sourcePoint" />
            <mxPoint x="550" y="620" as="targetPoint" />
          </mxGeometry>
        </mxCell>
        <mxCell id="XwpVITPWyW7fgP2IyW2y-2267" value="" style="endArrow=none;html=1;rounded=0;entryX=0.5;entryY=0.98;entryDx=0;entryDy=0;entryPerimeter=0;exitX=0.5;exitY=0;exitDx=0;exitDy=0;exitPerimeter=0;strokeWidth=3;" edge="1" parent="1" source="XwpVITPWyW7fgP2IyW2y-2260" target="XwpVITPWyW7fgP2IyW2y-2258">
          <mxGeometry width="50" height="50" relative="1" as="geometry">
            <mxPoint x="500" y="670" as="sourcePoint" />
            <mxPoint x="550" y="620" as="targetPoint" />
          </mxGeometry>
        </mxCell>
        <mxCell id="XwpVITPWyW7fgP2IyW2y-2268" value="&lt;font style=&quot;font-size: 14px;&quot;&gt;F0/1&lt;/font&gt;" style="text;html=1;align=center;verticalAlign=middle;resizable=0;points=[];autosize=1;strokeColor=none;fillColor=none;fontStyle=1" vertex="1" parent="1">
          <mxGeometry x="270" y="360" width="50" height="30" as="geometry" />
        </mxCell>
        <mxCell id="XwpVITPWyW7fgP2IyW2y-2269" value="&lt;font style=&quot;font-size: 14px;&quot;&gt;F0/1&lt;/font&gt;" style="text;html=1;align=center;verticalAlign=middle;resizable=0;points=[];autosize=1;strokeColor=none;fillColor=none;fontStyle=1" vertex="1" parent="1">
          <mxGeometry x="400" y="320" width="50" height="30" as="geometry" />
        </mxCell>
        <mxCell id="XwpVITPWyW7fgP2IyW2y-2270" value="F0/6" style="text;html=1;align=center;verticalAlign=middle;resizable=0;points=[];autosize=1;strokeColor=none;fillColor=none;fontSize=14;fontStyle=1" vertex="1" parent="1">
          <mxGeometry x="220" y="380" width="50" height="30" as="geometry" />
        </mxCell>
        <mxCell id="XwpVITPWyW7fgP2IyW2y-2271" value="F0/18" style="text;html=1;align=center;verticalAlign=middle;resizable=0;points=[];autosize=1;strokeColor=none;fillColor=none;fontSize=14;fontStyle=1" vertex="1" parent="1">
          <mxGeometry x="505" y="380" width="60" height="30" as="geometry" />
        </mxCell>
      </root>
    </mxGraphModel>
  </diagram>
</mxfile>
